<?xml version="1.0" encoding="utf-8"?>
<!-- Generator: Adobe Illustrator 25.0.0, SVG Export Plug-In . SVG Version: 6.00 Build 0)  -->
<svg version="1.1" id="Layer_1" xmlns="http://www.w3.org/2000/svg" xmlns:xlink="http://www.w3.org/1999/xlink" x="0px" y="0px"
	 viewBox="0 0 171.6 135.9" style="enable-background:new 0 0 171.6 135.9;" xml:space="preserve">
<style type="text/css">
	.st0{fill:#06A78D;}
</style>
<g id="b8184ed7-aabd-4fe9-ba41-ce319828bb8e">
	<g id="b3f067f6-8f4b-4197-8e83-b85484035faf">
		<path class="st0" d="M68.4,16.7c-13,7.2-24.8,16.5-34.7,27.6c4.4-3.1,8.9-6,13.6-8.6c41.9-23.5,87-22.3,100.7,2.7
			c8.3,15.1,3.1,35.5-11.5,54.5c28.7-23,42.4-53.2,31.3-73.7C154.2-5.4,109.8-6.5,68.4,16.7z"/>
		<path class="st0" d="M101.6,119.8c12.8-7,24.3-16.1,34-27c-4.3,3.1-8.7,5.9-13.3,8.4c-41.1,22.9-85.4,21.4-99-3.4
			c-8.2-15-3.4-35.1,10.9-53.7C6.1,66.7-7.2,96.4,3.9,116.7C17.3,141.1,61.1,142.5,101.6,119.8z"/>
		<path class="st0" d="M109.2,95.9h-28l10.7-52.3h30.4c5.1,0,8.7,1.2,10.9,3.7s3,6,2.2,9.3c-0.6,3.1-2.2,5.9-4.5,8
			c-1.9,1.6-4,2.8-6.4,3.5c3.6,0.9,6.1,2.4,7.4,4.7c0.9,1.5,1.3,3.2,1.3,5c9.6-12.2,13.2-25.5,8.1-36.2
			c-8.9-18.9-41.1-22.5-71.9-8.1c-6,2.8-11.7,6.2-17,10.1H65c4.8,0,8.5,0.6,11.1,1.9c2.6,1.2,4.7,3.1,6.1,5.5
			c1.5,2.6,2.3,5.4,2.4,8.4c0.2,3.4-0.1,6.8-0.8,10.1c-1.1,5.6-2.7,9.9-4.6,13c-1.8,3-4.1,5.6-6.9,7.7c-2.4,1.9-5.2,3.3-8.2,4.2
			c-3.3,0.9-6.6,1.4-10,1.4H30.5c10.1,17.2,41.1,20.1,70.9,6.1c4-1.9,7.9-4,11.6-6.4C111.2,95.8,110,95.9,109.2,95.9z"/>
		<path class="st0" d="M38.1,57.2c-10,12.3-13.8,25.9-8.7,36.8c0.2,0.5,0.5,1.1,0.8,1.6L38.1,57.2z"/>
		<path class="st0" d="M99.9,84.7h8.3c2.8,0,4.9-0.5,6.2-1.5c1.3-1,2.2-2.4,2.5-4c0.4-1.3,0-2.7-0.9-3.7c-1-0.9-2.8-1.4-5.7-1.4H102
			L99.9,84.7z"/>
		<path class="st0" d="M64.4,79c1.2-1.9,2.2-4.9,3.1-9.1c1.1-5.5,1-9.3-0.4-11.4c-1.4-2-4.2-3.1-8.4-3.1h-4L48.8,84h4
			c3.4,0,5.9-0.4,7.5-1.1C62,82.1,63.5,80.7,64.4,79z"/>
		<path class="st0" d="M116.7,62.9c1.2-0.9,2-2.3,2.2-3.8c0.4-1.2,0.1-2.6-0.8-3.6c-0.8-0.9-2.4-1.3-4.9-1.3H106l-2,9.9h7.1
			C113.7,64.2,115.5,63.7,116.7,62.9z"/>
	</g>
</g>
</svg>
